********* Frequency.2000.DVDRiP.XviD.OPTIONAL-NORDIC_SUB-Zen_Bud **********

Format                           : AVI 
File size                        : 895 MiB
Duration                         : 1h 53mn
Overall bit rate                 : 1 101 Kbps

Video

Format                           : MPEG-4 Visual
Codec ID/Hint                    : XviD
Duration                         : 1h 53mn
Bit rate                         : 960 Kbps
Width                            : 702 pixels
Height                           : 434 pixels
Display aspect ratio             : 2.25:1
Frame rate                       : 25.000 fps
Stream size                      : 780 MiB (87%)
Writing library                  : XviD 1.1.2 (UTC 2006-11-01)

Audio

Format                           : MPEG Audio
Codec ID/Hint                    : MP3
Duration                         : 1h 53mn
Bit rate                         : 128 Kbps
Channel(s)                       : 2 channels
Sampling rate                    : 48.0 KHz
Stream size                      : 104 MiB (12%)
Language                         : English

Text #1
Language                         : Swedish

Text #2
Language                         : Norwegian

Text #3
Language                         : Finnish

Text #4
Language                         : Danish



An accidental cross-time radio link connects father and son across 30 years. The son tries to save his father's life, but then must fix the consequences. 

